<?xml version="1.0" encoding="utf-8"?>
<!-- Generator: Adobe Illustrator 18.1.1, SVG Export Plug-In . SVG Version: 6.00 Build 0)  -->
<svg version="1.1" id="Capa_1" xmlns="http://www.w3.org/2000/svg" xmlns:xlink="http://www.w3.org/1999/xlink" x="0px" y="0px"
	 viewBox="0 0 954.3 111.9" enable-background="new 0 0 954.3 111.9" xml:space="preserve">
<g>
	<path fill="#77C043" d="M736.6,76.5c-58.2,0-115,7.3-169.7,21.3c-63-24.1-128.8-36.9-196.5-36.9c-79.8,0-157.1,17.8-230.3,51h378.7
		h81.9h353.7C885.1,88.8,812.1,76.5,736.6,76.5z"/>
	<g>
		<path fill="#77C043" d="M0.2,111.9l-0.1-47c64.8,3.9,127.5,20.3,187.4,47.8"/>
	</g>
	<g>
		<rect x="414.9" y="20.6" fill="#F0F0F0" width="29.4" height="47.2"/>
		<rect x="424" y="46.9" fill="#00D3A3" width="11.3" height="7.3"/>
		<rect x="424" y="36.9" fill="#00D3A3" width="11.3" height="7.3"/>
		<rect x="424" y="26.5" fill="#F5D836" width="11.3" height="7.3"/>
		<rect x="435.3" y="26.5" fill="#00D3A3" width="5.7" height="7.3"/>
		<rect x="425" y="58.5" fill="#EF5F81" width="9.2" height="9.3"/>
		<rect x="424" y="26.5" fill="#00D3A3" width="5.7" height="7.3"/>
	</g>
	<g>
		<rect x="340.7" y="52.7" fill="#99965A" width="7.9" height="12.1"/>
		<circle fill="#0D866B" cx="344.6" cy="48.6" r="12.7"/>
	</g>
	<g>
		<rect x="440.3" y="58.2" fill="#99965A" width="7.9" height="12.1"/>
		<circle fill="#0D866B" cx="444.3" cy="54.1" r="12.7"/>
	</g>
	<g>
		<rect x="225.8" y="65.8" fill="#99965A" width="9.7" height="14.8"/>
		<circle fill="#0D866B" cx="230.6" cy="60.8" r="15.5"/>
	</g>
	<g>
		<rect x="207.3" y="70.6" fill="#99965A" width="9.7" height="14.8"/>
		<circle fill="#0D866B" cx="212.2" cy="65.6" r="15.5"/>
	</g>
	<g>
		<rect x="176.6" y="89.5" fill="#99965A" width="8.2" height="12.5"/>
		<circle fill="#0D866B" cx="180.6" cy="85.2" r="13.1"/>
	</g>
	<g>
		<rect x="22.2" y="71.5" fill="#99965A" width="8.6" height="13.2"/>
		<circle fill="#0D866B" cx="26.6" cy="67.1" r="13.9"/>
	</g>
	<g>
		<rect x="43" y="67.2" fill="#99965A" width="10.6" height="16.2"/>
		<circle fill="#0D866B" cx="48.3" cy="61.8" r="17"/>
	</g>
	<line fill="none" stroke="#837099" stroke-width="6" stroke-miterlimit="10" x1="306.5" y1="80.2" x2="349.4" y2="80.2"/>
	<path fill="none" stroke="#837099" stroke-width="6" stroke-miterlimit="10" d="M349.4,80.2c11.3,0,20.5,9.2,20.5,20.5"/>
	<ellipse fill="#2171C9" cx="421.6" cy="83.7" rx="19.3" ry="5.4"/>
	<path fill="none" stroke="#837099" stroke-width="8" stroke-miterlimit="10" d="M484.7,102"/>
	<path fill="#2171C9" d="M572.6,96.4c-1.9,0.5-3.8,0.9-5.7,1.4c-1.5-0.6-3.1-1.2-4.6-1.7c-3.6,2.1-12.9,7.9-23,15.9h42
		C577.6,104.6,574.1,98.8,572.6,96.4z"/>
	<path fill="none" stroke="#837099" stroke-width="8" stroke-linejoin="round" stroke-miterlimit="10" d="M183.1,122.5L183.1,122.5
		c0-11.3,9.2-20.5,20.5-20.5h337c0,0,10.1-6.5,23.3-6.5c12.7,0,20.8,6.5,20.8,6.5h47.6"/>
	<path fill="none" stroke="#837099" stroke-width="8" stroke-linejoin="round" stroke-miterlimit="10" d="M632.2,102
		c11.3,0,20.5,9.2,20.5,20.5"/>
	<polyline fill="none" stroke="#99965A" stroke-width="3" stroke-miterlimit="10" points="450.8,80.6 450.8,77.2 464.9,77.2 
		464.9,80.6 	"/>
	<polyline fill="none" stroke="#99965A" stroke-width="3" stroke-miterlimit="10" points="455.3,94.8 455.3,91.4 469.4,91.4 
		469.4,94.8 	"/>
	<polyline fill="none" stroke="#99965A" stroke-width="3" stroke-miterlimit="10" points="381.2,94.8 381.2,91.4 395.2,91.4 
		395.2,94.8 	"/>
	<g>
		<polygon fill="#F0F0F0" points="234.3,88 202.3,88 202.3,33.8 234.3,23.8 		"/>
		<rect x="212.2" y="39.4" fill="#493C6B" width="12.3" height="11.5"/>
		<rect x="218.3" y="39.4" fill="#00D3A3" width="6.2" height="11.5"/>
		<rect x="206" y="55.1" fill="#00D3A3" width="6.2" height="11.5"/>
		<rect x="212.2" y="55.1" fill="#837099" width="12.3" height="11.5"/>
		<rect x="224.5" y="55.1" fill="#00D3A3" width="6.2" height="11.5"/>
		<rect x="207.9" y="73.3" fill="#EF5F81" width="10" height="14.7"/>
		<rect x="212.2" y="39.4" fill="#00D3A3" width="6.2" height="11.5"/>
	</g>
	<g>
		<rect x="343.3" y="20.6" fill="#F0F0F0" width="29.4" height="47.2"/>
		<rect x="352.4" y="46.9" fill="#00D3A3" width="11.3" height="7.3"/>
		<rect x="352.4" y="26.5" fill="#00D3A3" width="11.3" height="7.3"/>
		<rect x="352.4" y="36.9" fill="#837099" width="11.3" height="7.3"/>
		<rect x="363.7" y="36.9" fill="#00D3A3" width="5.7" height="7.3"/>
		<rect x="353.5" y="58.5" fill="#EF5F81" width="9.2" height="9.3"/>
		<rect x="352.4" y="36.9" fill="#00D3A3" width="5.7" height="7.3"/>
	</g>
	<g>
		<polygon fill="#F0F0F0" points="479,72 523.6,72 523.6,32.6 479,27.6 		"/>
		<rect x="505.7" y="57.3" fill="#00D3A3" width="9.9" height="5.2"/>
		<rect x="505.7" y="42.9" fill="#00D3A3" width="9.9" height="5.2"/>
		<rect x="505.7" y="50.2" fill="#F5D836" width="9.9" height="5.2"/>
		<rect x="505.7" y="50.2" fill="#00D3A3" width="4.9" height="5.2"/>
		<rect x="496.7" y="65.5" fill="#EF5F81" width="8" height="6.6"/>
		<rect x="515.6" y="50.2" fill="#00D3A3" width="4.9" height="5.2"/>
		<rect x="485.7" y="57.3" fill="#00D3A3" width="9.9" height="5.2"/>
		<rect x="485.7" y="42.9" fill="#00D3A3" width="9.9" height="5.2"/>
		<rect x="485.7" y="50.2" fill="#F5D836" width="9.9" height="5.2"/>
		<rect x="480.8" y="50.2" fill="#00D3A3" width="4.9" height="5.2"/>
		<rect x="490.7" y="50.2" fill="#00D3A3" width="4.9" height="5.2"/>
		<rect x="505.7" y="35.9" fill="#F5D836" width="9.9" height="5.2"/>
		<rect x="500.8" y="35.9" fill="#00D3A3" width="4.9" height="5.2"/>
		<rect x="515.6" y="35.9" fill="#00D3A3" width="4.9" height="5.2"/>
		<rect x="485.7" y="35.9" fill="#00D3A3" width="9.9" height="5.2"/>
		<rect x="490.7" y="35.9" fill="#00D3A3" width="4.9" height="5.2"/>
	</g>
	<g>
		<rect x="378.8" y="20.6" fill="#F0F0F0" width="29.4" height="47.2"/>
		<rect x="387.9" y="46.9" fill="#00D3A3" width="11.3" height="7.3"/>
		<rect x="387.9" y="36.9" fill="#00D3A3" width="11.3" height="7.3"/>
		<rect x="387.9" y="26.5" fill="#00D3A3" width="11.3" height="7.3"/>
		<rect x="389" y="58.5" fill="#EF5F81" width="9.2" height="9.3"/>
	</g>
	<g>
		<rect x="364" y="63" fill="#99965A" width="9.7" height="14.8"/>
		<circle fill="#0D866B" cx="368.8" cy="58" r="15.5"/>
	</g>
	<g>
		<rect x="386.6" y="60.6" fill="#99965A" width="9.7" height="14.8"/>
		<circle fill="#0D866B" cx="391.5" cy="55.6" r="15.5"/>
	</g>
	<path fill="none" stroke="#99965A" stroke-width="3" stroke-miterlimit="10" d="M564,88.3c12.7,0,20.8,6.5,20.8,6.5"/>
	<path fill="none" stroke="#99965A" stroke-width="3" stroke-miterlimit="10" d="M540.7,94.8c0,0,10.1-6.5,23.3-6.5"/>
	<line fill="none" stroke="#99965A" stroke-width="3" stroke-miterlimit="10" x1="562.9" y1="87.4" x2="562.9" y2="97.3"/>
	<line fill="none" stroke="#99965A" stroke-width="3" stroke-miterlimit="10" x1="546.6" y1="90.5" x2="550.2" y2="99.8"/>
	<line fill="none" stroke="#99965A" stroke-width="3" stroke-miterlimit="10" x1="578.4" y1="90.2" x2="574.9" y2="99.4"/>
	<g>
		<rect x="525.1" y="78.2" fill="#99965A" width="9.7" height="14.8"/>
		<circle fill="#0D866B" cx="529.9" cy="73.2" r="15.5"/>
	</g>
	<g>
		<rect x="606.4" y="79.2" fill="#99965A" width="9.7" height="14.8"/>
		<circle fill="#0D866B" cx="611.2" cy="74.2" r="15.5"/>
	</g>
	<g>
		<rect x="650.2" y="76.1" fill="#99965A" width="9.7" height="14.8"/>
		<circle fill="#0D866B" cx="655" cy="71.2" r="15.5"/>
	</g>
	<g>
		<rect x="626.9" y="78.1" fill="#99965A" width="11.1" height="17"/>
		<circle fill="#0D866B" cx="632.5" cy="72.4" r="17.8"/>
	</g>
	<g>
		<rect x="912.3" y="95.2" fill="#99965A" width="8.3" height="12.7"/>
		<circle fill="#0D866B" cx="916.4" cy="90.9" r="13.3"/>
	</g>
	<g>
		<rect x="888.3" y="89.6" fill="#99965A" width="11.1" height="17"/>
		<circle fill="#0D866B" cx="893.8" cy="83.8" r="17.8"/>
	</g>
	<g>
		<rect x="481.1" y="66.2" fill="#99965A" width="10.6" height="16.2"/>
		<circle fill="#0D866B" cx="486.4" cy="60.8" r="17"/>
	</g>
	<g>
		<rect x="502.8" y="74.3" fill="#99965A" width="10.6" height="16.2"/>
		<circle fill="#0D866B" cx="508.1" cy="68.9" r="17"/>
	</g>
	<g>
		<rect x="279.9" y="58" fill="#99965A" width="9.7" height="14.8"/>
		<circle fill="#0D866B" cx="284.8" cy="53" r="15.5"/>
	</g>
	<g>
		<polygon fill="#F0F0F0" points="274.8,88 242.8,88 242.8,33.8 274.8,23.8 		"/>
		<rect x="252.7" y="55.1" fill="#837099" width="12.3" height="11.5"/>
		<rect x="246.6" y="39.4" fill="#00D3A3" width="6.2" height="11.5"/>
		<rect x="252.7" y="39.4" fill="#F5D836" width="12.3" height="11.5"/>
		<rect x="265" y="39.4" fill="#00D3A3" width="6.2" height="11.5"/>
		<rect x="252.7" y="55.1" fill="#00D3A3" width="6.2" height="11.5"/>
		<rect x="265" y="55.1" fill="#00D3A3" width="6.2" height="11.5"/>
		<rect x="248.4" y="73.3" fill="#EF5F81" width="10" height="14.7"/>
	</g>
	<g>
		<polygon fill="#F0F0F0" points="335.7,88 284.8,88 284.8,53.8 309.6,43.8 335.7,53.8 		"/>
		<path fill="#0D866B" d="M293.3,71.1h-4.2c-0.1,0-0.1,0-0.1-0.1V57.3c0-0.1,0-0.1,0.1-0.1h4.2c0.1,0,0.1,0,0.1,0.1V71
			C293.4,71.1,293.4,71.1,293.3,71.1z"/>
		<path fill="#0D866B" d="M306.4,71.1h-4.2c-0.1,0-0.1,0-0.1-0.1V57.3c0-0.1,0-0.1,0.1-0.1h4.2c0.1,0,0.1,0,0.1,0.1V71
			C306.5,71.1,306.4,71.1,306.4,71.1z"/>
		<rect x="293.4" y="57.1" fill="#F5D836" width="8.7" height="14"/>
		<path fill="#0D866B" d="M318.1,71.1h-4.2c-0.1,0-0.1,0-0.1-0.1V57.3c0-0.1,0-0.1,0.1-0.1h4.2c0.1,0,0.1,0,0.1,0.1V71
			C318.2,71.1,318.1,71.1,318.1,71.1z"/>
		<rect x="318.2" y="57.1" fill="#837099" width="8.7" height="14"/>
		<path fill="#EF5F81" d="M316.1,73.3h-11.6c-0.1,0-0.2,0.1-0.2,0.2v14.4c0,0.1,0.1,0.2,0.2,0.2h11.6c0.1,0,0.2-0.1,0.2-0.2V73.5
			C316.3,73.4,316.2,73.3,316.1,73.3z"/>
		<path fill="#0D866B" d="M326.8,71.1h-4.2c-0.1,0-0.1,0-0.1-0.1V57.3c0-0.1,0-0.1,0.1-0.1h4.2c0.1,0,0.1,0,0.1,0.1V71
			C326.9,71.1,326.8,71.1,326.8,71.1z"/>
	</g>
	<g>
		<rect x="125.5" y="74.3" fill="#99965A" width="7" height="10.8"/>
		<circle fill="#0D866B" cx="129.1" cy="70.7" r="11.3"/>
	</g>
	<g>
		<rect x="80" y="69" fill="#F0F0F0" width="20.4" height="25.3"/>
		<rect x="91.8" y="84.6" fill="#EF5F81" width="5.5" height="9.7"/>
		<rect x="83" y="73.8" fill="#837099" width="4.8" height="6.4"/>
		<rect x="92.5" y="73.8" fill="#F5D836" width="4.8" height="6.4"/>
	</g>
	<g>
		<g>
			<polygon fill="#F0F0F0" points="134.2,94.3 100.4,94.3 100.4,69 116.9,62.4 134.2,69 			"/>
			<path fill="#0D866B" d="M112.4,83.1h-4.7c-0.1,0-0.1,0-0.1-0.1V74c0-0.1,0-0.1,0.1-0.1h4.7c0.1,0,0.1,0,0.1,0.1V83
				C112.5,83.1,112.4,83.1,112.4,83.1z"/>
			<rect x="112.5" y="73.8" fill="#837099" width="9.8" height="9.3"/>
			<path fill="#EF5F81" d="M121.2,84.6h-7.6c-0.1,0-0.2,0.1-0.2,0.2v9.4c0,0.1,0.1,0.2,0.2,0.2h7.6c0.1,0,0.2-0.1,0.2-0.2v-9.4
				C121.3,84.6,121.2,84.6,121.2,84.6z"/>
			<path fill="#0D866B" d="M122.2,83.1h-4.7c-0.1,0-0.1,0-0.1-0.1V74c0-0.1,0-0.1,0.1-0.1h4.7c0.1,0,0.1,0,0.1,0.1V83
				C122.3,83.1,122.2,83.1,122.2,83.1z"/>
		</g>
	</g>
	<g>
		<rect x="138.6" y="88" fill="#99965A" width="9" height="13.8"/>
		<circle fill="#0D866B" cx="143.1" cy="83.4" r="14.4"/>
	</g>
	<g>
		<rect x="63.7" y="74.8" fill="#99965A" width="9.2" height="14.1"/>
		<circle fill="#0D866B" cx="68.3" cy="70.1" r="14.7"/>
	</g>
	
		<line fill="none" stroke="#837099" stroke-width="8" stroke-linejoin="round" stroke-miterlimit="10" x1="46.5" y1="102.4" x2="0" y2="102.4"/>
	<path fill="none" stroke="#837099" stroke-width="8" stroke-linejoin="round" stroke-miterlimit="10" d="M67.1,123
		c0-11.3-9.2-20.5-20.5-20.5"/>
</g>
</svg>
