<?xml version="1.0" encoding="utf-8"?>
<!-- Generator: Adobe Illustrator 18.1.1, SVG Export Plug-In . SVG Version: 6.00 Build 0)  -->
<svg version="1.1" id="Capa_1" xmlns="http://www.w3.org/2000/svg" xmlns:xlink="http://www.w3.org/1999/xlink" x="0px" y="0px"
	 viewBox="0 0 214.7 171.3" enable-background="new 0 0 214.7 171.3" xml:space="preserve">
<path opacity="0.7" fill="#CCCCCC" d="M197.1,27l0,136.6c8.1,0,9.2-4.1,9.2-4.1l0-133c0-4.5-2.2-17.6-11.2-17.6L197.1,27z"/>
<path fill="#2C7CEC" d="M28.1,163.6l167.3,0c4.2,0,7.7-3.6,7.7-8.1c0-4.5-3.4-8.1-7.7-8.1l0-122.5L28.1,25L28.1,163.6z"/>
<path fill="#1C5293" d="M195.1,25l0,122.5c4.5,0,8.1,3.6,8.1,8.1l0-138.6c0-4.5-3.6-8.1-8.1-8.1L195.1,25z"/>
<g>
	<polyline fill="none" stroke="#EAEAEA" stroke-miterlimit="10" points="85.7,77.1 73.3,77.1 73.5,121.1 	"/>
	<path fill="none" stroke="#EAEAEA" stroke-miterlimit="10" d="M85.7,77.1"/>
	<path fill="none" stroke="#EAEAEA" stroke-miterlimit="10" d="M85.6,47.2c-0.7,0-1.4,0.4-1.7,1.2L73.3,77.1"/>
	<polyline fill="none" stroke="#EAEAEA" stroke-miterlimit="10" points="83.9,48.4 79.2,61.1 85.6,61.1 	"/>
	<path fill="none" stroke="#EAEAEA" stroke-miterlimit="10" d="M73.4,115.8c-4.1,0-7.5,3.4-7.5,7.5l0,12.5c0,0-0.1,0.6-0.5,0.8
		c-0.5,0.2-0.8,0-1-0.3c-0.2-0.3-5.5-16-5.5-25.5s14.5-10.5,14.5-10.5L73.4,115.8z"/>
	<path fill="none" stroke="#EAEAEA" stroke-miterlimit="10" d="M84.3,129h-6.4c-2.5,0-4.5-2-4.5-4.5v-3.3"/>
	<path fill="none" stroke="#EAEAEA" stroke-miterlimit="10" d="M85.7,136.6l-1.5,0c0,0-0.1,0-0.1-0.1L84,100.4c0,0,0-0.1,0.1-0.1
		l1.5,0"/>
</g>
<g>
	<g>
		<line fill="none" stroke="#EAEAEA" stroke-miterlimit="10" x1="86.6" y1="36.7" x2="86.6" y2="38.2"/>
		
			<line fill="none" stroke="#EAEAEA" stroke-miterlimit="10" stroke-dasharray="3.084,3.084" x1="86.6" y1="41.3" x2="86.6" y2="144.6"/>
		<line fill="none" stroke="#EAEAEA" stroke-miterlimit="10" x1="86.6" y1="146.1" x2="86.6" y2="147.6"/>
	</g>
</g>
<path fill="none" stroke="#EAEAEA" stroke-width="2" stroke-miterlimit="10" d="M139.1,77.1l-10.8-28.7c-0.3-0.8-1-1.2-1.7-1.2l0,0
	c-0.7,0-1.4,0.4-1.7,1.2l-10.6,28.8c0,0,0.1,44,0.1,44l12.4,0l12.4,0L139.1,77.1z"/>
<path fill="none" stroke="#EAEAEA" stroke-miterlimit="10" d="M114.5,115.8c-4.1,0-7.5,3.4-7.5,7.5l0,12.5c0,0-0.1,0.6-0.5,0.8
	s-0.8,0-1-0.3c-0.2-0.3-5.5-16-5.5-25.5s14.5-10.5,14.5-10.5L114.5,115.8z"/>
<path fill="none" stroke="#EAEAEA" stroke-miterlimit="10" d="M139.1,115.8c4.1,0,7.5,3.3,7.5,7.5l0,12.5c0,0,0.1,0.6,0.5,0.8
	c0.5,0.2,0.8,0,1-0.3c0.2-0.3,5.4-16,5.4-25.5s-14.5-10.4-14.5-10.4L139.1,115.8z"/>
<path fill="none" stroke="#EAEAEA" stroke-width="2" stroke-miterlimit="10" d="M139.3,121.2v3.3c0,2.5-2,4.5-4.5,4.5h-15.9
	c-2.5,0-4.5-2-4.5-4.5v-3.3"/>
<line fill="none" stroke="#EAEAEA" stroke-miterlimit="10" x1="114.4" y1="84.2" x2="139.3" y2="84.2"/>
<line fill="none" stroke="#EAEAEA" stroke-width="2" stroke-miterlimit="10" x1="114.4" y1="100.4" x2="120.5" y2="100.4"/>
<line fill="none" stroke="#EAEAEA" stroke-width="2" stroke-miterlimit="10" x1="166.4" y1="56.7" x2="179.6" y2="56.7"/>
<line fill="none" stroke="#EAEAEA" stroke-width="2" stroke-miterlimit="10" x1="166.4" y1="60.6" x2="182.2" y2="60.6"/>
<line fill="none" stroke="#EAEAEA" stroke-width="2" stroke-miterlimit="10" x1="166.4" y1="64.3" x2="180.8" y2="64.3"/>
<line fill="none" stroke="#EAEAEA" stroke-width="2" stroke-miterlimit="10" x1="166.4" y1="89.7" x2="179.6" y2="89.7"/>
<line fill="none" stroke="#EAEAEA" stroke-width="2" stroke-miterlimit="10" x1="166.4" y1="93.7" x2="182.2" y2="93.7"/>
<line fill="none" stroke="#EAEAEA" stroke-width="2" stroke-miterlimit="10" x1="166.4" y1="109" x2="179.6" y2="109"/>
<line fill="none" stroke="#EAEAEA" stroke-width="2" stroke-miterlimit="10" x1="166.4" y1="113" x2="182.2" y2="113"/>
<line fill="none" stroke="#EAEAEA" stroke-width="2" stroke-miterlimit="10" x1="166.4" y1="125.2" x2="179.6" y2="125.2"/>
<line fill="none" stroke="#EAEAEA" stroke-width="2" stroke-miterlimit="10" x1="166.4" y1="129.1" x2="182.2" y2="129.1"/>
<line fill="none" stroke="#EAEAEA" stroke-width="2" stroke-miterlimit="10" x1="166.4" y1="132.7" x2="180.8" y2="132.7"/>
<line fill="none" stroke="#EAEAEA" stroke-width="2" stroke-miterlimit="10" x1="133" y1="100.4" x2="139.1" y2="100.4"/>
<rect x="124.7" y="129" fill="none" stroke="#EAEAEA" stroke-miterlimit="10" width="3.8" height="7.9"/>
<line fill="none" stroke="#EAEAEA" stroke-miterlimit="10" x1="131.5" y1="56.7" x2="162.8" y2="56.7"/>
<line fill="none" stroke="#EAEAEA" stroke-miterlimit="10" x1="131.5" y1="89.7" x2="162.8" y2="89.7"/>
<line fill="none" stroke="#EAEAEA" stroke-miterlimit="10" x1="149.2" y1="109" x2="162.8" y2="109"/>
<line fill="none" stroke="#EAEAEA" stroke-miterlimit="10" x1="131.5" y1="125.1" x2="162.8" y2="125.1"/>
<g>
	<g>
		<g>
			<g>
				<g>
					<g>
						<polygon fill="#222E51" points="16.8,36.7 7.5,96.2 3.9,92.6 13.3,33.1 						"/>
					</g>
					<g>
						<path fill="#222E51" d="M8.1,92.6c0,0-0.6,4-0.9,5.4c-0.2,1.4-1.3,4.3-1.3,4.3S5.8,99.5,6,98.1c0.2-1.2,0.9-5.4,0.9-5.4
							L8.1,92.6z"/>
					</g>
				</g>
			</g>
			<g>
				<g>
					<g>
						<polygon fill="#222E51" points="19.1,36.3 48.2,89.1 50.3,84.5 21.2,31.7 						"/>
					</g>
					<g>
						<path fill="#222E51" d="M47.5,85.4c0,0,2,3.6,2.7,4.8s2.1,3.8,2.1,3.8s-0.9,0.8-2.4-2c-0.6-1.1-3.5-6.2-3.5-6.2L47.5,85.4z"/>
					</g>
				</g>
			</g>
		</g>
		<g>
			<path fill="#222E51" d="M12.8,38.1c-3.4-2.4-4.3-7.1-1.9-10.6c2.4-3.4,7.1-4.3,10.6-1.9c1.7,1.2,2.8,2.9,3.1,4.9
				c0.4,2-0.1,4-1.3,5.7l-0.9-0.6c1-1.4,1.4-3.2,1.1-4.9c-0.3-1.7-1.3-3.2-2.7-4.2c-2.9-2.1-7-1.3-9.1,1.6c-2.1,2.9-1.3,7,1.6,9.1
				L12.8,38.1z"/>
		</g>
		<g>
			<circle fill="#222E51" cx="18.1" cy="37.3" r="3.8"/>
		</g>
		<g>
			<circle fill="#222E51" cx="44.1" cy="48.9" r="1.9"/>
		</g>
		<g>
			
				<rect x="27.8" y="35.7" transform="matrix(0.1736 0.9848 -0.9848 0.1736 74.2537 14.8152)" fill="#222E51" width="1.1" height="31.9"/>
		</g>
		<g>
			<polygon fill="#222E51" points="17.3,23.1 15.9,24.9 14,23.7 11.8,11.6 15.1,11 			"/>
		</g>
	</g>
</g>
</svg>
