<?xml version="1.0" encoding="utf-8"?>
<!-- Generator: Adobe Illustrator 18.1.1, SVG Export Plug-In . SVG Version: 6.00 Build 0)  -->
<svg version="1.1" id="Capa_1" xmlns="http://www.w3.org/2000/svg" xmlns:xlink="http://www.w3.org/1999/xlink" x="0px" y="0px"
	 viewBox="0 0 60 60" enable-background="new 0 0 60 60" xml:space="preserve">
<g>
	<path fill="#FFFFFF" d="M35.7,29.7l-4,0l0,14.7h-5.5V29.7h-3.7v-5.1l3.7,0l0-3c0-4.1,1.1-6.6,6-6.6h4v5.1h-2.5c-1.9,0-2,0.7-2,2
		l0,2.5h4.5L35.7,29.7z"/>
	<path fill="none" stroke="#FFFFFF" stroke-width="1.6268" stroke-miterlimit="10" d="M30,2.5C14.8,2.5,2.5,14.8,2.5,30
		c0,15.2,12.3,27.5,27.5,27.5S57.5,45.2,57.5,30C57.5,14.8,45.2,2.5,30,2.5z"/>
</g>
</svg>
