<?xml version="1.0" encoding="utf-8"?>
<!-- Generator: Adobe Illustrator 18.1.1, SVG Export Plug-In . SVG Version: 6.00 Build 0)  -->
<svg version="1.1" id="Capa_1" xmlns="http://www.w3.org/2000/svg" xmlns:xlink="http://www.w3.org/1999/xlink" x="0px" y="0px"
	 viewBox="0 0 60 60" enable-background="new 0 0 60 60" xml:space="preserve">
<g>
	<path fill="#FFFFFF" d="M28.1,34.7c0.5,0.5,1.2,0.8,1.9,0.8h5.4c0.8,0,1.4,0.3,1.9,0.8c0.5,0.5,0.8,1.2,0.8,1.9
		c0,0.8-0.3,1.4-0.8,1.9c-0.5,0.5-1.2,0.8-1.9,0.8H30c-2.3,0-4.2-0.8-5.8-2.4c-1.6-1.6-2.4-3.5-2.4-5.8V21.8c0-0.8,0.3-1.4,0.8-2
		c0.5-0.5,1.2-0.8,2-0.8c0.7,0,1.4,0.3,1.9,0.8c0.5,0.5,0.8,1.2,0.8,1.9v2.7h8.1c0.8,0,1.4,0.3,1.9,0.8c0.5,0.5,0.8,1.2,0.8,1.9
		c0,0.7-0.3,1.4-0.8,1.9c-0.5,0.5-1.2,0.8-1.9,0.8h-8.1v2.7C27.3,33.5,27.6,34.2,28.1,34.7z"/>
	<path fill="none" stroke="#FFFFFF" stroke-width="1.6268" stroke-miterlimit="10" d="M30,2.5C14.8,2.5,2.5,14.8,2.5,30
		S14.8,57.5,30,57.5c15.2,0,27.5-12.3,27.5-27.5S45.2,2.5,30,2.5z"/>
</g>
</svg>
