<?xml version="1.0" encoding="utf-8"?>
<!-- Generator: Adobe Illustrator 18.1.1, SVG Export Plug-In . SVG Version: 6.00 Build 0)  -->
<svg version="1.1" id="Capa_1" xmlns="http://www.w3.org/2000/svg" xmlns:xlink="http://www.w3.org/1999/xlink" x="0px" y="0px"
	 viewBox="0 0 214.7 171.3" enable-background="new 0 0 214.7 171.3" xml:space="preserve">
<g>
	<polygon fill="#F5D836" points="107,58.9 85.6,58.9 85.8,135.3 107.2,135.2 128.7,135.2 128.5,58.8 	"/>
	<path opacity="0.3" fill="#F5D836" d="M106.9,7L106.9,7c-1.2,0-2.4,0.7-2.9,2.1L85.6,58.9l21.5-0.1l0,0l21.4-0.1L109.8,9
		C109.3,7.7,108.1,7,106.9,7z"/>
	<path fill="#222E51" d="M104,9.1l-8.2,22.1l22.3-0.1L109.8,9C108.8,6.3,104.9,6.3,104,9.1z"/>
	<path fill="#FF3381" d="M85.7,126c-7.2,0-13,5.9-13,13l0.1,21.7c0,0-0.1,1.1-0.9,1.4s-1.3,0-1.7-0.5c-0.4-0.5-9.6-27.7-9.6-44.2
		c0-16.5,25.1-18.1,25.1-18.1L85.7,126z"/>
	<path fill="#FF3381" d="M128.7,123.9c7.2,0,13,5.8,13,13l0.1,21.7c0,0,0.1,1.1,0.9,1.4c0.8,0.3,1.3,0,1.7-0.6
		c0.4-0.5,9.4-27.8,9.4-44.3c0-16.5-25.2-18-25.2-18L128.7,123.9z"/>
	<path fill="#00D3A3" d="M128.8,135.3v5.8c0,4.3-3.5,7.8-7.8,7.8H93.5c-4.3,0-7.8-3.5-7.8-7.8v-5.8"/>
	<rect x="85.8" y="130.8" fill="#FFFFFF" width="43" height="4.5"/>
	<path fill="#FF3381" d="M109.5,99.3l0.2,62.7c0,0.1-0.1,0.2-0.2,0.2l-4.3,0c-0.1,0-0.2-0.1-0.2-0.2l-0.2-62.7
		c0-0.1,0.1-0.2,0.2-0.2l4.3,0C109.4,99.1,109.5,99.2,109.5,99.3z"/>
</g>
</svg>
