<?xml version="1.0" encoding="utf-8"?>
<!-- Generator: Adobe Illustrator 18.1.1, SVG Export Plug-In . SVG Version: 6.00 Build 0)  -->
<svg version="1.1" id="Capa_1" xmlns="http://www.w3.org/2000/svg" xmlns:xlink="http://www.w3.org/1999/xlink" x="0px" y="0px"
	 viewBox="0 0 186 27.8" enable-background="new 0 0 186 27.8" xml:space="preserve">
<g>
	<g>
		<path fill="#FFFFFF" d="M18.6,7.5h7.3c1.3,0,2.3,0.3,3,0.8c0.7,0.6,1,1.4,1,2.4V13c0,1.1-0.3,1.9-1,2.5c-0.7,0.6-1.7,0.8-3,0.8
			h-4.1v4.2h-3.2V7.5z M21.8,10.7V13h3.8c0.4,0,0.7-0.1,0.8-0.2c0.1-0.1,0.2-0.3,0.2-0.6v-0.8c0-0.3-0.1-0.5-0.2-0.6
			c-0.1-0.1-0.4-0.2-0.8-0.2H21.8z"/>
		<path fill="#FFFFFF" d="M44.1,7.5v8.8c0,1.4-0.4,2.5-1.1,3.2c-0.8,0.8-1.8,1.1-3.2,1.1h-3.6c-1.4,0-2.5-0.4-3.2-1.1
			s-1.1-1.8-1.1-3.2V7.5H35v8.3c0,0.5,0.1,0.9,0.4,1.2c0.3,0.3,0.7,0.4,1.2,0.4h2.6c0.5,0,0.9-0.1,1.2-0.4c0.3-0.3,0.4-0.7,0.4-1.2
			V7.5H44.1z"/>
		<path fill="#FFFFFF" d="M46.4,7.5h7.5c1.3,0,2.3,0.3,3,0.8s1,1.2,1,2.2v1.3c0,0.5-0.1,0.9-0.4,1.3c-0.3,0.3-0.7,0.6-1.1,0.7
			c0.6,0.1,1.1,0.4,1.4,0.7c0.3,0.4,0.4,0.9,0.4,1.5v1.4c0,1-0.3,1.8-1,2.3c-0.7,0.5-1.7,0.8-3.1,0.8h-7.6V7.5z M49.6,10.6v6.7h4.2
			c0.5,0,0.8-0.1,1-0.2c0.2-0.2,0.3-0.4,0.3-0.9c0-0.4-0.1-0.7-0.3-0.9c-0.2-0.2-0.5-0.2-1-0.2h-3v-2.6h2.8c0.5,0,0.8-0.1,1-0.2
			s0.3-0.4,0.3-0.8s-0.1-0.6-0.3-0.8c-0.2-0.1-0.5-0.2-1-0.2H49.6z"/>
		<path fill="#FFFFFF" d="M60.5,7.5h3.2v8.2c0,0.6,0.1,1,0.3,1.2c0.2,0.2,0.6,0.3,1.2,0.3h4v3.2h-4.5c-1.5,0-2.6-0.3-3.3-1
			s-1-1.7-1-3.3V7.5z"/>
		<path fill="#FFFFFF" d="M70.8,7.5H74v12.9h-3.2V7.5z"/>
		<path fill="#FFFFFF" d="M80.7,7.5h5.8v3.2h-5.2c-0.5,0-0.9,0.1-1.2,0.4c-0.3,0.3-0.4,0.7-0.4,1.2v3.3c0,0.5,0.1,0.9,0.4,1.2
			c0.3,0.3,0.7,0.4,1.2,0.4h5.2v3.2h-5.8c-1.4,0-2.5-0.4-3.2-1.1s-1.1-1.8-1.1-3.2v-4.2c0-1.4,0.4-2.5,1.1-3.2S79.3,7.5,80.7,7.5z"
			/>
		<path fill="#FFFFFF" d="M102,7.5h6.8v3.2h-6.9c-0.4,0-0.6,0.1-0.8,0.2c-0.2,0.1-0.3,0.3-0.3,0.6c0,0.3,0.1,0.5,0.3,0.6
			c0.2,0.1,0.4,0.2,0.8,0.2h2.9c1.5,0,2.6,0.4,3.4,1.1c0.8,0.7,1.2,1.7,1.2,2.9c0,1.3-0.4,2.3-1.2,3c-0.8,0.7-2,1.1-3.4,1.1h-6.9
			v-3.2h7.1c0.4,0,0.8-0.1,1-0.2c0.2-0.1,0.3-0.4,0.3-0.7c0-0.3-0.1-0.5-0.3-0.7c-0.2-0.1-0.5-0.2-1-0.2H102c-1.4,0-2.4-0.4-3.2-1.1
			c-0.8-0.7-1.2-1.7-1.2-2.9c0-1.2,0.4-2.2,1.2-2.9C99.6,7.9,100.7,7.5,102,7.5z"/>
		<path fill="#FFFFFF" d="M111.4,7.5h7.3c1.3,0,2.3,0.3,3,0.8c0.7,0.6,1,1.4,1,2.4V13c0,1.1-0.3,1.9-1,2.5c-0.7,0.6-1.7,0.8-3,0.8
			h-4.1v4.2h-3.2V7.5z M114.6,10.7V13h3.8c0.4,0,0.7-0.1,0.8-0.2c0.1-0.1,0.2-0.3,0.2-0.6v-0.8c0-0.3-0.1-0.5-0.2-0.6
			c-0.1-0.1-0.4-0.2-0.8-0.2H114.6z"/>
		<path fill="#FFFFFF" d="M132.9,9.8l3.6,10.6H133l-2.9-9.3c-0.1-0.2-0.2-0.4-0.3-0.5c-0.1-0.1-0.2-0.2-0.4-0.2
			c-0.2,0-0.3,0-0.4,0.1c-0.1,0.1-0.2,0.3-0.2,0.5l-2.9,9.3h-3.4L126,9.8c0.3-0.8,0.7-1.4,1.3-1.9c0.6-0.4,1.3-0.7,2.1-0.7
			c0.8,0,1.6,0.2,2.1,0.6C132.2,8.3,132.6,9,132.9,9.8z"/>
		<path fill="#FFFFFF" d="M141.1,7.5h5.8v3.2h-5.2c-0.5,0-0.9,0.1-1.2,0.4c-0.3,0.3-0.4,0.7-0.4,1.2v3.3c0,0.5,0.1,0.9,0.4,1.2
			c0.3,0.3,0.7,0.4,1.2,0.4h5.2v3.2h-5.8c-1.4,0-2.5-0.4-3.2-1.1s-1.1-1.8-1.1-3.2v-4.2c0-1.4,0.4-2.5,1.1-3.2S139.7,7.5,141.1,7.5z
			"/>
		<path fill="#FFFFFF" d="M153.1,7.5h6.4v3.1h-6.2c-0.5,0-0.8,0.1-0.9,0.2c-0.2,0.1-0.2,0.4-0.2,0.9v0.6h7.4v3.1h-7.4v0.7
			c0,0.4,0.1,0.7,0.2,0.9s0.5,0.2,0.9,0.2h6.2v3.1h-6.4c-1.5,0-2.6-0.3-3.3-1c-0.7-0.7-1-1.7-1-3.2v-4.5c0-1.5,0.3-2.6,1-3.2
			S151.6,7.5,153.1,7.5z"/>
	</g>
</g>
</svg>
