<?xml version="1.0" encoding="utf-8"?>
<!-- Generator: Adobe Illustrator 18.1.1, SVG Export Plug-In . SVG Version: 6.00 Build 0)  -->
<svg version="1.1" id="Capa_1" xmlns="http://www.w3.org/2000/svg" xmlns:xlink="http://www.w3.org/1999/xlink" x="0px" y="0px"
	 viewBox="0 0 276.7 219.2" enable-background="new 0 0 276.7 219.2" xml:space="preserve">
<g>
	<path fill="#EF5F81" d="M210.9,219.2v-53.1h-76.8c0,0-6,21.2-8.5,53.1H210.9z"/>
	<path fill="#D21F57" d="M229.4,219.2l0-27.5c0-5.4-4.4-9.7-9.7-9.7h-16.6v37.3H229.4z"/>
	<g>
		<polygon fill="#450930" points="95.5,112.3 95.5,92.4 102.4,68.3 124.8,40.6 155.8,42.1 128,128.3 		"/>
		<circle fill="#FCC386" cx="177.9" cy="102.2" r="66.4"/>
		<g>
			<circle fill="#F3F2E9" cx="189.8" cy="91.8" r="9.2"/>
			<circle fill="#006287" cx="186.7" cy="90.1" r="2.2"/>
		</g>
		<g>
			<circle fill="#F3F2E9" cx="132.6" cy="82.9" r="9.2"/>
			<circle fill="#006287" cx="129.5" cy="81.2" r="2.2"/>
		</g>
		<path fill="#432C22" d="M244.3,102.2c0-36.7-29.7-66.4-66.4-66.4c-15,0-39.4-3.5-50.5,4.9c-2.7,2-15.5,32.9,90.5,38.3l5.8,31.8
			l19.9,1.5C244.1,109,244.3,105.6,244.3,102.2z"/>
		<g>
			<path fill="#FCC386" d="M223.2,107.9c4.1-4.2,9.5-6.2,14.6-4.9c8.6,2.3,13.1,13.2,10.1,24.5s-12.3,18.6-20.9,16.3
				c-3.4-0.9-6.1-3.1-8-6.2"/>
		</g>
		<path fill="#3D0000" d="M122.8,108.9c-1.9,12,2.4,23.5,30.9,27.1s35.8-4.4,37.7-16.4c0,0-17-0.5-36.7-3.4S122.8,108.9,122.8,108.9
			z"/>
		<path fill="#F48363" d="M153.3,105.2c-5-1.8-6.3-5.9-2.8-9.1l3.9-3.7c3.5-3.2,6.6-2.1,7,2.5l0.4,5.2
			C162.1,104.7,158.3,107,153.3,105.2z"/>
		<path fill="#FFFFFF" d="M154.7,116.3c-14.8-2.1-25.4-5.2-29.8-6.6c0.5,2.4,2.2,4.4,4.7,4.9c1.3,0.3,2.6,0.1,3.7-0.5
			c0.8,1.6,2.3,2.8,4.1,3.2c1.4,0.3,2.7,0,3.9-0.6c0.7,2,2.3,3.5,4.4,4c2.5,0.5,4.9-0.7,6.3-2.8c0.4,2.6,2.2,4.8,4.7,5.3
			c2.6,0.5,5.1-0.8,6.5-3.1c0.8,1.6,2.2,2.7,4,3.1c2.3,0.5,4.7-0.6,6.1-2.5c0.7,0.6,1.6,1,2.5,1.2c2.5,0.5,4.9-0.7,6.3-2.8
			C175.5,118.7,165.5,117.8,154.7,116.3z"/>
		
			<rect x="119.9" y="87.5" transform="matrix(0.9861 0.166 -0.166 0.9861 17.2368 -20.349)" fill="#FCC386" width="21" height="10.8"/>
		
			<rect x="179.3" y="97.2" transform="matrix(0.9861 0.166 -0.166 0.9861 19.6548 -30.0763)" fill="#FCC386" width="21" height="10.8"/>
		<path fill="#CDE0EA" d="M241.9,167c-37.3,2.9-106,2.8-135.9-17.2"/>
		<path fill="#CDE0EA" d="M241.9,167c12-15.1,27.2-43.1,27.2-63.8c0-48.9-39.6-88.5-88.5-88.5s-88.5,39.6-88.5,88.5
			c0,17.9,5.3,34.5,14.4,48.4C124.6,159.2,157.2,177.5,241.9,167z M126.6,44.1c18.9-0.1,56.1,2.8,99.3,16.7c8.8,11.7,11,55,2.8,66.4
			c-37.3,2.9-100.8,2.3-130.7-17.7C95.6,102.5,98.8,60.2,126.6,44.1z"/>
		<g>
			<path fill="none" stroke="#393F44" stroke-width="4" stroke-linecap="round" stroke-linejoin="round" stroke-miterlimit="10" d="
				M126.7,43.9c18.9-0.1,56.1,2.8,99.3,16.7c8.8,11.7,11,55,2.8,66.4c-37.3,2.9-100.8,2.3-130.7-17.7C95.7,102.2,98.9,60,126.7,43.9
				z"/>
		</g>
		<g>
			<path fill="#493C6B" d="M201.2,139.5c-9.2,0-18.1-0.3-26.7-0.9c-1.4-0.1-2.4-1.3-2.3-2.7c0.1-1.4,1.3-2.4,2.7-2.3
				c12.3,0.8,25.3,1.1,38.8,0.7c1.4,0,2.5,1,2.6,2.4c0,1.4-1,2.5-2.4,2.6C209.6,139.5,205.4,139.5,201.2,139.5z"/>
		</g>
		<ellipse fill="#493C6B" cx="223.2" cy="136.6" rx="2.3" ry="2.5"/>
		<path fill="#493C6B" d="M180.6,14.7c-2.8,0-5.7,0.1-8.4,0.4c-7.6,3.9-15.1,9.1-18.6,15.7l45.4,8.3c0,0,5-9.1,19.4-16
			C207,17.8,194.2,14.7,180.6,14.7z"/>
		<ellipse fill="none" stroke="#493C6B" stroke-miterlimit="10" cx="254.7" cy="95.5" rx="5.8" ry="11.5"/>
		<path fill="#493C6B" d="M247.2,159.8l-5.4,7.2c-84.7,10.5-117.4-7.7-135.3-15.4l-4.6-8c-3.7,0.6-5,9-5,16.1
			c0,8.1,9.6,13.4,9.6,13.4c17.9,7.6,50.6,25.9,135.3,15.4c0,0,9.6-5.3,9.6-13.4C251.4,167.8,249.9,160.1,247.2,159.8z"/>
		<g>
			<path fill="none" stroke="#493C6B" stroke-linecap="round" stroke-miterlimit="10" d="M140.8,131.8c0,0-1.2,7.1-1.9,23.4"/>
			<path fill="none" stroke="#493C6B" stroke-linecap="round" stroke-miterlimit="10" d="M144.5,134.3c0,0-1.2,3.4-1.9,19.6"/>
			<path fill="none" stroke="#493C6B" stroke-linecap="round" stroke-miterlimit="10" d="M147.6,138c0,0-0.6-1-1.2,15.2"/>
			<path fill="none" stroke="#493C6B" stroke-linecap="round" stroke-miterlimit="10" d="M137,133.7c0,0-1.2,2.7-1.9,19"/>
			<path fill="none" stroke="#493C6B" stroke-linecap="round" stroke-miterlimit="10" d="M132.6,136.2c0,0-0.6-2.2-1.2,14"/>
		</g>
	</g>
	<g>
		<path fill="none" d="M99.7,85c-2.7,11.5-2.8,21.5-1.7,24.6c30,20,93.4,20.6,130.7,17.7c8.2-11.4,6-54.8-2.8-66.4
			c-12.5-4-24.5-7.1-35.8-9.5c-1.4,2.3-2.9,4.5-4.6,6.7C163.4,87.4,127,98.2,99.7,85z"/>
	</g>
</g>
</svg>
