<?xml version="1.0" encoding="utf-8"?>
<!-- Generator: Adobe Illustrator 18.1.1, SVG Export Plug-In . SVG Version: 6.00 Build 0)  -->
<svg version="1.1" id="Capa_1" xmlns="http://www.w3.org/2000/svg" xmlns:xlink="http://www.w3.org/1999/xlink" x="0px" y="0px"
	 viewBox="0 0 237 240" enable-background="new 0 0 237 240" xml:space="preserve">
<g>
	<circle fill="#F5D836" cx="118.5" cy="116.1" r="96.6"/>
	<path fill="#EF5F81" d="M133.3,225.3c-2.4,0.2-4.7,0.3-7.2,0.3c-13.3,0-25.9-3-37.2-8.3c0,0-21-51.5,0-64.4c7.3-4.5,36-5.8,41.8,0
		C136.6,158.7,140.4,186.7,133.3,225.3z"/>
	<path fill="#D21F57" d="M94.4,187.4c0,0-0.8-14.3-1.7-21.7c-0.4-3.2-2.7-8.7-7-8.7c-3.6,0-8.2,2.3-8.2,11.6l0,18.9L94.4,187.4z"/>
	<g>
		<circle fill="#FCC386" cx="105" cy="100.6" r="42.7"/>
		<g>
			<circle fill="#F3F2E9" cx="97.4" cy="93.9" r="5.9"/>
			<circle fill="#006287" cx="99.4" cy="93.9" r="1.4"/>
		</g>
		<g>
			<circle fill="#F3F2E9" cx="134.1" cy="88.2" r="5.9"/>
			<circle fill="#006287" cx="136.1" cy="88.2" r="1.4"/>
		</g>
		<path fill="#432C22" d="M62.4,100.6C62.4,77.1,81.5,58,105,58c9.7,0,25.3-2.3,32.4,3.2c1.7,1.3,9.9,21.1-58.1,24.6l-3.7,20.4
			l-12.8,1C62.5,105,62.4,102.8,62.4,100.6z"/>
		<g>
			<path fill="#FCC386" d="M75.9,104.3c-2.7-2.7-6.1-4-9.4-3.1c-5.5,1.5-8.4,8.5-6.5,15.7s7.9,11.9,13.4,10.5c2.2-0.6,3.9-2,5.1-4"
				/>
		</g>
		<path fill="none" stroke="#3D0000" stroke-miterlimit="10" d="M140.4,104.9c1.2,7.7-1.5,15.1-19.9,17.4s-23-2.8-24.2-10.6"/>
		<path fill="#F48363" d="M120.8,102.5c3.2-1.2,4-3.8,1.8-5.9l-2.5-2.4c-2.2-2.1-4.2-1.4-4.5,1.6l-0.3,3.3
			C115.2,102.2,117.6,103.7,120.8,102.5z"/>
	</g>
	<path fill="#E6B37D" d="M94.4,219.6c-5.9-2.4-11.6-5.4-16.9-8.9v-23.4h16.9V219.6z"/>
	<path fill="#FCC386" d="M105.2,156.9L105.2,156.9c-5.2,0-9.5-4.3-9.5-9.5v-3.3c0-5.2,4.3-9.5,9.5-9.5h0c5.2,0,9.5,4.3,9.5,9.5v3.3
		C114.7,152.6,110.4,156.9,105.2,156.9z"/>
</g>
</svg>
