<?xml version="1.0" encoding="utf-8"?>
<!-- Generator: Adobe Illustrator 18.1.1, SVG Export Plug-In . SVG Version: 6.00 Build 0)  -->
<svg version="1.1" id="Capa_1" xmlns="http://www.w3.org/2000/svg" xmlns:xlink="http://www.w3.org/1999/xlink" x="0px" y="0px"
	 viewBox="0 0 237 240" enable-background="new 0 0 237 240" xml:space="preserve">
<g>
	<circle fill="#837099" cx="118.5" cy="116.1" r="96.6"/>
	<path fill="#99A9B2" d="M103.7,225.3c2.4,0.2,4.7,0.3,7.2,0.3c13.3,0,25.9-3,37.2-8.3c0,0,21-51.5,0-64.4c-7.3-4.5-36-5.8-41.8,0
		C100.4,158.7,96.6,186.7,103.7,225.3z"/>
	<path fill="#CDE0EA" d="M142.5,187.4c0,0,0.8-14.3,1.7-21.7c0.4-3.2,2.7-8.7,7-8.7c3.6,0,8.2,2.3,8.2,11.6l0,18.9L142.5,187.4z"/>
	<g>
		<circle fill="#FCC386" cx="132" cy="100.6" r="42.7"/>
		<path fill="#432C22" d="M174.6,100.6c0-23.6-19.1-42.7-42.7-42.7c-9.7,0-25.3-2.3-32.4,3.2c-1.7,1.3-9.9,21.1,58.1,24.6l3.7,20.4
			l12.8,1C174.4,105,174.6,102.8,174.6,100.6z"/>
		<g>
			<path fill="#FCC386" d="M161.1,104.3c2.7-2.7,6.1-4,9.4-3.1c5.5,1.5,8.4,8.5,6.5,15.7c-1.9,7.2-7.9,11.9-13.4,10.5
				c-2.2-0.6-3.9-2-5.1-4"/>
		</g>
		<path fill="none" stroke="#3D0000" stroke-miterlimit="10" d="M96.6,104.9c-1.2,7.7,1.5,15.1,19.9,17.4s23-2.8,24.2-10.6"/>
	</g>
	<path fill="#CDE0EA" d="M142.5,219.6c5.9-2.4,11.6-5.4,16.9-8.9v-23.4h-16.9V219.6z"/>
	<path fill="#FCC386" d="M131.8,156.9L131.8,156.9c5.2,0,9.5-4.3,9.5-9.5v-3.3c0-5.2-4.3-9.5-9.5-9.5h0c-5.2,0-9.5,4.3-9.5,9.5v3.3
		C122.3,152.6,126.6,156.9,131.8,156.9z"/>
</g>
</svg>
