<?xml version="1.0" encoding="utf-8"?>
<!-- Generator: Adobe Illustrator 18.1.1, SVG Export Plug-In . SVG Version: 6.00 Build 0)  -->
<svg version="1.1" id="Capa_1" xmlns="http://www.w3.org/2000/svg" xmlns:xlink="http://www.w3.org/1999/xlink" x="0px" y="0px"
	 viewBox="0 0 276.7 219.2" enable-background="new 0 0 276.7 219.2" xml:space="preserve">
<g>
	<g>
		<rect x="91.3" y="166.1" fill="#D21F57" width="55.7" height="26.3"/>
		<rect x="49" y="166.1" fill="#E6B37D" width="43.2" height="26.3"/>
		<path fill="#E6B37D" d="M55.7,177.6h-6c-3.7,0-6.6-3-6.6-6.6v-38c0-3.7,3-6.6,6.6-6.6h6c3.7,0,6.6,3,6.6,6.6v38
			C62.3,174.6,59.3,177.6,55.7,177.6z"/>
		<path fill="#FCC386" d="M17.6,163.6v-5.9c0-3.6,3-6.6,6.6-6.6H46c3.6,0,6.6,3,6.6,6.6v5.9c0,3.6-3,6.6-6.6,6.6l-21.8,0
			C20.6,170.2,17.6,167.2,17.6,163.6z"/>
		<path fill="#FCC386" d="M13.5,178.2v-5.9c0-3.6,3-6.6,6.6-6.6l29.3,0c3.6,0,6.6,3,6.6,6.6v5.9c0,3.6-3,6.6-6.6,6.6l-29.3,0
			C16.5,184.8,13.5,181.9,13.5,178.2z"/>
		<path fill="#FCC386" d="M21.4,191.3l0-5.1c0-3.1,2.6-5.7,5.7-5.7l19.4,0c3.1,0,5.7,2.6,5.7,5.7l0,5.1c0,3.1-2.6,5.7-5.7,5.7
			l-19.4,0C24,197,21.4,194.4,21.4,191.3z"/>
	</g>
	<path fill="#E6B37D" d="M62.3,153.7L62.3,153.7c0,6.8,5.5,12.4,12.4,12.4H62.3V153.7z"/>
</g>
</svg>
